# xmcd
#
# Track frame offsets:
#	150
#	20219
#	35655
#	45062
#	58211
#	74271
#	92316
#	114866
#	131667
#	154576
#	172822
#	192843
#	209500
#	227365
#	241098
#	256855
#	273980
#	285595
#	291260
#	300417
#
# Disc length: 4218 seconds
#
# Revision: 0
# Processed by: cddbd v1.5.2PL0 Copyright (c) Steve Scherf et al.
# Submitted via: audiograbber 1.83.01
#
DISCID=08107814
DTITLE=Various Artist - Merry Xmas! CD2
DYEAR=1900
DGENRE=
TTITLE0=East 17 - Stay Another Day
TTITLE1=Slade - Merry Christmas Everyone
TTITLE2=Brenda Lee - Rockin' Around The Christmas Tree
TTITLE3=Jona Lewie - Stop The Cavalry
TTITLE4=George Michael - December Song (I Dreamed of Christmas)
TTITLE5=Toni Braxton - Holiday Celebrate
TTITLE6=Eva Cassidy - Over The Rainbow
TTITLE7=Al Green - What Christmas Means To Me
TTITLE8=Luther Vandross - Have Yourself A Merry Little Christmas
TTITLE9=Dido - Christmas Day
TTITLE10=Gloria Estefan - Love On Layaway
TTITLE11=Cyndi Lauper - Early Christmas Morning
TTITLE12=Gladys Knight and The Pips - Do You Hear What I Hear?
TTITLE13=Aretha Franklin - Joy To The World
TTITLE14=Sarah McLachan - Wintersong
TTITLE15=Maria Mena - Home For Christmas
TTITLE16=Johnny Cash - The Little Drummer Boy
TTITLE17=Jackie Wilson - Deck The Hall
TTITLE18=Mario Lanza - O Christmas Tree
TTITLE19=Peter Auty - Walking In The Air
EXTD=(p) 2010 Sony Music - Universal Music TV
EXTT0=
EXTT1=
EXTT2=
EXTT3=
EXTT4=
EXTT5=
EXTT6=
EXTT7=
EXTT8=
EXTT9=
EXTT10=
EXTT11=
EXTT12=
EXTT13=
EXTT14=
EXTT15=
EXTT16=
EXTT17=
EXTT18=
EXTT19=
PLAYORDER=
